<svg xmlns="http://www.w3.org/2000/svg" viewBox="0 0 64 64" width="64" height="64">
  <!-- CleanSwarm Favicon — Hexagonal Swarm -->
  <rect width="64" height="64" rx="10" fill="#111111"/>
  <!-- Centre hex -->
  <polygon points="32,16 42,22 42,34 32,40 22,34 22,22" fill="#f59e0b"/>
  <!-- Top node -->
  <polygon points="32,4 38,7.5 38,14.5 32,18 26,14.5 26,7.5" fill="#fbbf24" opacity="0.9"/>
  <!-- Top-right node -->
  <polygon points="44,12 50,15.5 50,22.5 44,26 38,22.5 38,15.5" fill="#f59e0b" opacity="0.75"/>
  <!-- Bottom-right node -->
  <polygon points="44,38 50,41.5 50,48.5 44,52 38,48.5 38,41.5" fill="#f59e0b" opacity="0.75"/>
  <!-- Bottom node -->
  <polygon points="32,42 38,45.5 38,52.5 32,56 26,52.5 26,45.5" fill="#fbbf24" opacity="0.9"/>
  <!-- Bottom-left node -->
  <polygon points="20,38 26,41.5 26,48.5 20,52 14,48.5 14,41.5" fill="#f59e0b" opacity="0.75"/>
  <!-- Top-left node -->
  <polygon points="20,12 26,15.5 26,22.5 20,26 14,22.5 14,15.5" fill="#f59e0b" opacity="0.75"/>
  <!-- Motion dots -->
  <circle cx="54" cy="28" r="2" fill="#fbbf24" opacity="0.5"/>
  <circle cx="10" cy="28" r="2" fill="#fbbf24" opacity="0.5"/>
</svg>
